<svg xmlns="http://www.w3.org/2000/svg" viewBox="0 0 800 450" fill="none">
  <defs>
    <linearGradient id="bg" x1="0" y1="0" x2="800" y2="450" gradientUnits="userSpaceOnUse">
      <stop offset="0%" stop-color="#1a1033"/>
      <stop offset="100%" stop-color="#0d1117"/>
    </linearGradient>
    <linearGradient id="grad" x1="0" y1="0" x2="200" y2="200" gradientUnits="userSpaceOnUse">
      <stop offset="0%" stop-color="#8B5CF6"/>
      <stop offset="100%" stop-color="#2DD4BF"/>
    </linearGradient>
  </defs>
  <rect width="800" height="450" fill="url(#bg)"/>
  <g fill="#8B5CF6" opacity="0.06">
    <circle cx="40" cy="40" r="2"/><circle cx="80" cy="40" r="2"/><circle cx="120" cy="40" r="2"/><circle cx="160" cy="40" r="2"/><circle cx="200" cy="40" r="2"/><circle cx="240" cy="40" r="2"/><circle cx="280" cy="40" r="2"/><circle cx="320" cy="40" r="2"/><circle cx="360" cy="40" r="2"/><circle cx="400" cy="40" r="2"/><circle cx="440" cy="40" r="2"/><circle cx="480" cy="40" r="2"/><circle cx="520" cy="40" r="2"/><circle cx="560" cy="40" r="2"/><circle cx="600" cy="40" r="2"/><circle cx="640" cy="40" r="2"/><circle cx="680" cy="40" r="2"/><circle cx="720" cy="40" r="2"/><circle cx="760" cy="40" r="2"/>
    <circle cx="40" cy="80" r="2"/><circle cx="80" cy="80" r="2"/><circle cx="120" cy="80" r="2"/><circle cx="160" cy="80" r="2"/><circle cx="200" cy="80" r="2"/><circle cx="240" cy="80" r="2"/><circle cx="280" cy="80" r="2"/><circle cx="320" cy="80" r="2"/><circle cx="360" cy="80" r="2"/><circle cx="400" cy="80" r="2"/><circle cx="440" cy="80" r="2"/><circle cx="480" cy="80" r="2"/><circle cx="520" cy="80" r="2"/><circle cx="560" cy="80" r="2"/><circle cx="600" cy="80" r="2"/><circle cx="640" cy="80" r="2"/><circle cx="680" cy="80" r="2"/><circle cx="720" cy="80" r="2"/><circle cx="760" cy="80" r="2"/>
  </g>
  <g transform="translate(400,180)">
    <path d="M0,-80 L65,-40 L65,20 C65,70 35,95 0,110 C-35,95 -65,70 -65,20 L-65,-40 Z" fill="url(#grad)" opacity="0.15"/>
    <path d="M0,-60 L50,-30 L50,15 C50,55 30,75 0,88 C-30,75 -50,55 -50,15 L-50,-30 Z" fill="url(#grad)" opacity="0.28"/>
    <line x1="0" y1="-28" x2="0" y2="55" stroke="url(#grad)" stroke-width="3" stroke-linecap="round"/>
    <line x1="-18" y1="12" x2="18" y2="12" stroke="url(#grad)" stroke-width="3" stroke-linecap="round"/>
  </g>
  <g opacity="0.35">
    <line x1="300" y1="235" x2="341" y2="235" stroke="#8B5CF6" stroke-width="1.5"/>
    <circle cx="190" cy="160" r="26" fill="none" stroke="#8B5CF6" stroke-width="1.5"/>
    <text x="190" y="166" text-anchor="middle" font-family="system-ui" font-size="16" fill="#2DD4BF">Region</text>
    <line x1="216" y1="160" x2="300" y2="160" stroke="#8B5CF6" stroke-width="1" opacity="0.5"/>
    <circle cx="326" cy="160" r="22" fill="none" stroke="#2DD4BF" stroke-width="1.5"/>
    <text x="326" y="166" text-anchor="middle" font-family="system-ui" font-size="14" fill="#8B5CF6">Zone</text>
    <line x1="330" y1="182" x2="330" y2="215" stroke="#2DD4BF" stroke-width="1" opacity="0.5"/>
    <circle cx="330" cy="235" r="22" fill="none" stroke="#8B5CF6" stroke-width="1.5"/>
    <text x="330" y="241" text-anchor="middle" font-family="system-ui" font-size="14" fill="#8B5CF6">Woreda</text>
    <line x1="348" y1="235" x2="440" y2="150" stroke="#8B5CF6" stroke-width="1" opacity="0.5"/>
    <circle cx="460" cy="130" r="26" fill="none" stroke="#2DD4BF" stroke-width="1.5"/>
    <text x="460" y="136" text-anchor="middle" font-family="system-ui" font-size="16" fill="#2DD4BF">Health Center</text>
  </g>
  <text x="400" y="340" text-anchor="middle" font-family="system-ui" font-weight="700" font-size="32" fill="white">E-Immunize Ethiopia</text>
  <text x="400" y="375" text-anchor="middle" font-family="system-ui" font-weight="400" font-size="16" fill="#A78BFA">Newborn Immunization Management System</text>
  <g font-family="system-ui" font-size="12" fill="#A78BFA">
    <rect x="265" y="395" width="70" height="24" rx="4" fill="#1a1033" stroke="#8B5CF6" stroke-width="0.5" opacity="0.5"/>
    <text x="300" y="411" text-anchor="middle">React</text>
    <rect x="345" y="395" width="80" height="24" rx="4" fill="#1a1033" stroke="#8B5CF6" stroke-width="0.5" opacity="0.5"/>
    <text x="385" y="411" text-anchor="middle">Node.js</text>
    <rect x="435" y="395" width="105" height="24" rx="4" fill="#1a1033" stroke="#8B5CF6" stroke-width="0.5" opacity="0.5"/>
    <text x="487" y="411" text-anchor="middle">MongoDB</text>
  </g>
</svg>